<?xml version="1.0" encoding="utf-8"?>
<!-- Generator: Adobe Illustrator 24.0.1, SVG Export Plug-In . SVG Version: 6.00 Build 0)  -->
<svg version="1.1" id="Слой_1" xmlns="http://www.w3.org/2000/svg" xmlns:xlink="http://www.w3.org/1999/xlink" x="0px" y="0px"
	 viewBox="0 0 640 302.55" style="enable-background:new 0 0 640 302.55;" xml:space="preserve">
<style type="text/css">
	.st0{display:none;fill:#662F2F;}
	.st1{fill:url(#SVGID_1_);}
	.st2{display:none;}
	.st3{display:inline;fill:#127001;}
	.st4{font-family:'MyriadPro-Regular';}
	.st5{font-size:109.8612px;}
	.st6{letter-spacing:-7.63;}
	.st7{letter-spacing:-9.8;}
	.st8{display:none;fill:#F9FF00;}
	.st9{font-size:161.1431px;}
	.st10{letter-spacing:-8.18;}
	.st11{display:inline;}
	.st12{font-family:'SegoeUI-Semilight';}
	.st13{font-size:266.8788px;}
	.st14{letter-spacing:-31.41;}
	.st15{letter-spacing:-26.17;}
	.st16{letter-spacing:-35.59;}
	.st17{letter-spacing:-51.3;}
	.st18{display:inline;fill:#000A02;stroke:url(#SVGID_2_);stroke-width:3;stroke-miterlimit:10;}
	.st19{display:inline;fill:#000A02;stroke:url(#SVGID_3_);stroke-width:3;stroke-miterlimit:10;}
	.st20{display:inline;fill:#000A02;stroke:url(#SVGID_4_);stroke-width:3;stroke-miterlimit:10;}
	.st21{display:inline;fill:#000A02;stroke:url(#SVGID_5_);stroke-width:3;stroke-miterlimit:10;}
	.st22{display:inline;fill:#1E4D2B;stroke:url(#SVGID_6_);stroke-width:2;stroke-miterlimit:10;}
	.st23{display:inline;fill:#1E4D2B;stroke:url(#SVGID_7_);stroke-width:2;stroke-miterlimit:10;}
	.st24{display:inline;fill:#1E4D2B;stroke:url(#SVGID_8_);stroke-width:2;stroke-miterlimit:10;}
	.st25{display:inline;fill:#1E4D2B;stroke:url(#SVGID_9_);stroke-width:2;stroke-miterlimit:10;}
	.st26{display:inline;fill:#F9FF00;stroke:url(#SVGID_10_);stroke-width:2;stroke-miterlimit:10;}
	.st27{display:inline;fill:#F9FF00;stroke:url(#SVGID_11_);stroke-width:2;stroke-miterlimit:10;}
	.st28{fill:#1E4D2B;stroke:url(#SVGID_12_);stroke-miterlimit:10;}
	.st29{fill:#1E4D2B;stroke:url(#SVGID_13_);stroke-miterlimit:10;}
	.st30{fill:#1E4D2B;stroke:url(#SVGID_14_);stroke-miterlimit:10;}
	.st31{fill:#1E4D2B;stroke:url(#SVGID_15_);stroke-miterlimit:10;}
	.st32{fill:#C2F0C2;stroke:url(#SVGID_16_);stroke-miterlimit:10;}
	.st33{fill:#C2F0C2;stroke:url(#SVGID_17_);stroke-miterlimit:10;}
	.st34{fill:#000A02;}
	.st35{opacity:0.5;}
</style>
<rect x="114" y="59.51" class="st0" width="292" height="187"/>
<linearGradient id="SVGID_1_" gradientUnits="userSpaceOnUse" x1="7.976" y1="151.2766" x2="633.4255" y2="151.2766">
	<stop  offset="0" style="stop-color:#7EC850"/>
	<stop  offset="1" style="stop-color:#C2F0C2"/>
</linearGradient>
<rect x="7.98" y="7.46" class="st1" width="625.45" height="287.62"/>
<text transform="matrix(0.9179 0 0 1 105.7832 133.5702)" class="st2"><tspan x="0" y="0" class="st3 st4 st5 st6">Li</tspan><tspan x="62.18" y="0" class="st3 st4 st5 st7">v</tspan><tspan x="104.47" y="0" class="st3 st4 st5 st6">e</tspan></text>
<text transform="matrix(0.8561 0 0 1 103.0329 244.812)" class="st8 st4 st9 st10">Be</text>
<text transform="matrix(0.9552 0 0 1 256.7808 246.703)" class="st2"><tspan x="0" y="0" class="st11 st12 st13 st14">W</tspan><tspan x="212.05" y="0" class="st11 st12 st13 st15">e</tspan><tspan x="322.72" y="0" class="st11 st12 st13 st16">l</tspan><tspan x="346.64" y="0" class="st11 st12 st13 st17">l</tspan></text>
<text transform="matrix(0.9552 0 0 1 256.7808 246.703)" class="st2"><tspan x="0" y="0" class="st11 st12 st13 st14">W</tspan><tspan x="212.05" y="0" class="st11 st12 st13 st15">e</tspan><tspan x="322.72" y="0" class="st11 st12 st13 st16">l</tspan><tspan x="346.64" y="0" class="st11 st12 st13 st17">l</tspan></text>
<g class="st2">
	<linearGradient id="SVGID_2_" gradientUnits="userSpaceOnUse" x1="211.4722" y1="129.0055" x2="438.8916" y2="129.0055">
		<stop  offset="0" style="stop-color:#84CB59"/>
		<stop  offset="0.2039" style="stop-color:#C0E62C"/>
		<stop  offset="0.4646" style="stop-color:#B9EBB3"/>
		<stop  offset="0.7095" style="stop-color:#1E4D2B"/>
		<stop  offset="1" style="stop-color:#8ABB8A"/>
	</linearGradient>
	<path class="st18" d="M385.62,246.52h-17.3L326.75,49.19L283.3,246.52H266L213.35,11.49h18.42L274.82,218l46.19-206.51h13.07
		l42.81,206.35l42.08-206.35h18.05L385.62,246.52z"/>
	<linearGradient id="SVGID_3_" gradientUnits="userSpaceOnUse" x1="413.5998" y1="176.6741" x2="525.2668" y2="176.6741">
		<stop  offset="0" style="stop-color:#84CB59"/>
		<stop  offset="0.2039" style="stop-color:#C0E62C"/>
		<stop  offset="0.4646" style="stop-color:#B9EBB3"/>
		<stop  offset="0.7095" style="stop-color:#1E4D2B"/>
		<stop  offset="1" style="stop-color:#8ABB8A"/>
	</linearGradient>
	<path class="st19" d="M431.66,179.67c0.08,8.17,1.12,15.51,3.11,22.02c1.99,6.52,4.85,12.03,8.59,16.55
		c3.73,4.52,8.28,7.97,13.63,10.36c5.35,2.39,11.39,3.58,18.11,3.58c14.36,0,27.92-5.25,40.7-15.77v16.42
		c-12.2,9.12-26.97,13.68-44.31,13.68c-8.55,0-16.31-1.56-23.28-4.69c-6.97-3.13-12.9-7.67-17.8-13.62
		c-4.9-5.95-8.67-13.27-11.33-21.96c-2.66-8.69-3.98-18.59-3.98-29.71c0-9.99,1.45-19.24,4.36-27.76
		c2.9-8.51,6.93-15.88,12.07-22.09c5.14-6.21,11.24-11.08,18.3-14.59c7.05-3.52,14.77-5.28,23.15-5.28c8.22,0,15.48,1.5,21.78,4.5
		c6.31,3,11.6,7.28,15.87,12.84c4.27,5.56,7.53,12.34,9.77,20.33c2.24,7.99,3.36,16.94,3.36,26.84v8.34H431.66z M507.34,165.08
		c-0.25-13.9-3.4-24.67-9.46-32.32c-6.06-7.64-14.48-11.47-25.27-11.47c-5.4,0-10.39,1-15,3c-4.61,2-8.65,4.89-12.14,8.67
		s-6.37,8.38-8.65,13.81c-2.28,5.43-3.88,11.53-4.79,18.31H507.34z"/>
	<linearGradient id="SVGID_4_" gradientUnits="userSpaceOnUse" x1="529.8162" y1="129.0055" x2="548.7498" y2="129.0055">
		<stop  offset="0" style="stop-color:#84CB59"/>
		<stop  offset="0.2039" style="stop-color:#C0E62C"/>
		<stop  offset="0.4646" style="stop-color:#B9EBB3"/>
		<stop  offset="0.7095" style="stop-color:#1E4D2B"/>
		<stop  offset="1" style="stop-color:#8ABB8A"/>
	</linearGradient>
	<path class="st20" d="M531.32,246.52V11.49h15.93v235.03H531.32z"/>
	<linearGradient id="SVGID_5_" gradientUnits="userSpaceOnUse" x1="552.6658" y1="129.0055" x2="571.5994" y2="129.0055">
		<stop  offset="0" style="stop-color:#84CB59"/>
		<stop  offset="0.2039" style="stop-color:#C0E62C"/>
		<stop  offset="0.4646" style="stop-color:#B9EBB3"/>
		<stop  offset="0.7095" style="stop-color:#1E4D2B"/>
		<stop  offset="1" style="stop-color:#8ABB8A"/>
	</linearGradient>
	<path class="st21" d="M554.17,246.52V11.49h15.93v235.03H554.17z"/>
</g>
<g class="st2">
	<linearGradient id="SVGID_6_" gradientUnits="userSpaceOnUse" x1="50.4512" y1="58.9862" x2="97.7863" y2="58.9862">
		<stop  offset="0" style="stop-color:#84CB59"/>
		<stop  offset="0.2039" style="stop-color:#C0E62C"/>
		<stop  offset="0.4646" style="stop-color:#B9EBB3"/>
		<stop  offset="0.7095" style="stop-color:#1E4D2B"/>
		<stop  offset="1" style="stop-color:#8ABB8A"/>
	</linearGradient>
	<path class="st22" d="M51.45,11.7h10.52v84.95h34.82v9.61H51.45V11.7z"/>
	<linearGradient id="SVGID_7_" gradientUnits="userSpaceOnUse" x1="97.3566" y1="64.8266" x2="112.5383" y2="64.8266">
		<stop  offset="0" style="stop-color:#84CB59"/>
		<stop  offset="0.2039" style="stop-color:#C0E62C"/>
		<stop  offset="0.4646" style="stop-color:#B9EBB3"/>
		<stop  offset="0.7095" style="stop-color:#1E4D2B"/>
		<stop  offset="1" style="stop-color:#8ABB8A"/>
	</linearGradient>
	<path class="st23" d="M111.53,29.98c0.12,3.95-2.3,6.55-6.53,6.55c-3.75,0-6.65-2.6-6.65-6.55c0-4.08,2.78-6.59,6.65-6.59
		C109,23.38,111.53,25.89,111.53,29.98z M99.66,106.27l-0.03-63.74h10.64l0.03,63.74H99.66z"/>
	<linearGradient id="SVGID_8_" gradientUnits="userSpaceOnUse" x1="110.8511" y1="74.3987" x2="169.0512" y2="74.3987">
		<stop  offset="0" style="stop-color:#84CB59"/>
		<stop  offset="0.2039" style="stop-color:#C0E62C"/>
		<stop  offset="0.4646" style="stop-color:#B9EBB3"/>
		<stop  offset="0.7095" style="stop-color:#1E4D2B"/>
		<stop  offset="1" style="stop-color:#8ABB8A"/>
	</linearGradient>
	<path class="st24" d="M123.62,42.53l11.48,35.82c1.93,5.79,3.51,11.06,4.71,16.33h0.36c1.33-5.27,3.02-10.54,4.96-16.33
		l11.36-35.82h11.12l-22.97,63.74H134.5l-22.24-63.74H123.62z"/>
	<linearGradient id="SVGID_9_" gradientUnits="userSpaceOnUse" x1="160.8244" y1="74.3325" x2="218.4772" y2="74.3325">
		<stop  offset="0" style="stop-color:#84CB59"/>
		<stop  offset="0.2039" style="stop-color:#C0E62C"/>
		<stop  offset="0.4646" style="stop-color:#B9EBB3"/>
		<stop  offset="0.7095" style="stop-color:#1E4D2B"/>
		<stop  offset="1" style="stop-color:#8ABB8A"/>
	</linearGradient>
	<path class="st25" d="M172.77,76.51c0.26,15.67,10.17,22.13,21.64,22.13c8.21,0,13.16-1.45,17.46-3.29l1.96,8.3
		c-4.04,1.84-10.95,3.95-20.98,3.95c-19.42,0-31.02-12.91-31.02-32.13c0-19.23,11.21-34.37,29.59-34.37
		c20.59,0,26.07,18.31,26.07,30.03c0,2.37-0.26,4.21-0.39,5.4H172.77z M206.4,68.21c0.13-7.38-3-18.83-15.9-18.83
		c-11.6,0-16.68,10.8-17.6,18.83H206.4z"/>
</g>
<g class="st2">
	<linearGradient id="SVGID_10_" gradientUnits="userSpaceOnUse" x1="50.4512" y1="179.5228" x2="133.4944" y2="179.5228">
		<stop  offset="0" style="stop-color:#84CB59"/>
		<stop  offset="0.2039" style="stop-color:#C0E62C"/>
		<stop  offset="0.4646" style="stop-color:#B9EBB3"/>
		<stop  offset="0.7095" style="stop-color:#1E4D2B"/>
		<stop  offset="1" style="stop-color:#8ABB8A"/>
	</linearGradient>
	<path class="st26" d="M51.45,113.17c7.25-1.62,18.69-2.83,30.32-2.83c16.59,0,27.27,3.03,35.28,9.9
		c6.67,5.25,10.68,13.33,10.68,24.04c0,13.13-8.2,24.64-21.74,29.9v0.4c12.2,3.23,26.51,13.94,26.51,34.14
		c0,11.72-4.39,20.6-10.87,27.27c-8.96,8.69-23.45,12.73-44.43,12.73c-11.44,0-20.21-0.81-25.74-1.62V113.17z M68.04,168.92h15.06
		c17.54,0,27.84-9.7,27.84-22.83c0-15.96-11.44-22.22-28.22-22.22c-7.63,0-12.01,0.61-14.68,1.21V168.92z M68.04,234.16
		c3.24,0.61,8.01,0.81,13.92,0.81c17.16,0,32.99-6.67,32.99-26.46c0-18.58-15.06-26.26-33.18-26.26H68.04V234.16z"/>
	<linearGradient id="SVGID_11_" gradientUnits="userSpaceOnUse" x1="136.0661" y1="198.511" x2="219.4908" y2="198.511">
		<stop  offset="0" style="stop-color:#84CB59"/>
		<stop  offset="0.2039" style="stop-color:#C0E62C"/>
		<stop  offset="0.4646" style="stop-color:#B9EBB3"/>
		<stop  offset="0.7095" style="stop-color:#1E4D2B"/>
		<stop  offset="1" style="stop-color:#8ABB8A"/>
	</linearGradient>
	<path class="st27" d="M153.08,201.84c0.38,24.04,14.87,33.94,31.65,33.94c12.01,0,19.26-2.22,25.55-5.05l2.86,12.73
		c-5.91,2.83-16.02,6.06-30.7,6.06c-28.41,0-45.38-19.8-45.38-49.29c0-29.49,16.4-52.72,43.29-52.72
		c30.13,0,38.14,28.08,38.14,46.06c0,3.64-0.38,6.46-0.57,8.28H153.08z M202.28,189.12c0.19-11.31-4.39-28.89-23.26-28.89
		c-16.97,0-24.41,16.56-25.74,28.89H202.28z"/>
</g>
<g>
	<linearGradient id="SVGID_12_" gradientUnits="userSpaceOnUse" x1="12.6735" y1="69.4866" x2="66.108" y2="69.4866">
		<stop  offset="0" style="stop-color:#84CB59"/>
		<stop  offset="0.3119" style="stop-color:#B9EBB3"/>
		<stop  offset="0.7095" style="stop-color:#1E4D2B"/>
		<stop  offset="1" style="stop-color:#8ABB8A"/>
	</linearGradient>
	<path class="st28" d="M13.17,14.8h12.17v98.26h40.27v11.12H13.17V14.8z"/>
	<linearGradient id="SVGID_13_" gradientUnits="userSpaceOnUse" x1="66.9242" y1="76.2416" x2="83.1701" y2="76.2416">
		<stop  offset="0" style="stop-color:#84CB59"/>
		<stop  offset="0.3119" style="stop-color:#B9EBB3"/>
		<stop  offset="0.7095" style="stop-color:#1E4D2B"/>
		<stop  offset="1" style="stop-color:#8ABB8A"/>
	</linearGradient>
	<path class="st29" d="M82.67,35.94c0.14,4.57-2.66,7.58-7.55,7.58c-4.33,0-7.69-3.01-7.69-7.58c0-4.72,3.22-7.63,7.69-7.63
		C79.73,28.31,82.67,31.21,82.67,35.94z M68.93,124.18l-0.03-73.73h12.3l0.03,73.73H68.93z"/>
	<linearGradient id="SVGID_14_" gradientUnits="userSpaceOnUse" x1="82.7999" y1="87.3127" x2="148.255" y2="87.3127">
		<stop  offset="0" style="stop-color:#84CB59"/>
		<stop  offset="0.3119" style="stop-color:#B9EBB3"/>
		<stop  offset="0.7095" style="stop-color:#1E4D2B"/>
		<stop  offset="1" style="stop-color:#8ABB8A"/>
	</linearGradient>
	<path class="st30" d="M96.65,50.45l13.28,41.43c2.24,6.7,4.06,12.8,5.45,18.89h0.42c1.54-6.09,3.5-12.19,5.73-18.89l13.14-41.43
		h12.86l-26.57,73.73h-11.74L83.5,50.45H96.65z"/>
	<linearGradient id="SVGID_15_" gradientUnits="userSpaceOnUse" x1="140.3311" y1="87.2362" x2="205.699" y2="87.2362">
		<stop  offset="0" style="stop-color:#84CB59"/>
		<stop  offset="0.3119" style="stop-color:#B9EBB3"/>
		<stop  offset="0.7095" style="stop-color:#1E4D2B"/>
		<stop  offset="1" style="stop-color:#8ABB8A"/>
	</linearGradient>
	<path class="st31" d="M153.49,89.75c0.3,18.13,11.76,25.59,25.02,25.59c9.5,0,15.23-1.68,20.2-3.81l2.26,9.6
		c-4.67,2.13-12.66,4.57-24.27,4.57c-22.46,0-35.88-14.93-35.88-37.17c0-22.24,12.96-39.76,34.22-39.76
		c23.82,0,30.15,21.17,30.15,34.73c0,2.74-0.3,4.87-0.45,6.25H153.49z M192.39,80.15c0.15-8.53-3.47-21.78-18.39-21.78
		c-13.42,0-19.3,12.49-20.35,21.78H192.39z"/>
</g>
<g>
	<linearGradient id="SVGID_16_" gradientUnits="userSpaceOnUse" x1="12.6735" y1="208.8991" x2="107.408" y2="208.8991">
		<stop  offset="0" style="stop-color:#84CB59"/>
		<stop  offset="0.4162" style="stop-color:#B9EBB3"/>
		<stop  offset="0.7095" style="stop-color:#1E4D2B"/>
		<stop  offset="1" style="stop-color:#8ABB8A"/>
	</linearGradient>
	<path class="st32" d="M13.17,132.15c8.38-1.87,21.61-3.27,35.07-3.27c19.19,0,31.54,3.5,40.8,11.45
		c7.72,6.07,12.35,15.42,12.35,27.8c0,15.19-9.48,28.5-25.14,34.58v0.47c14.12,3.74,30.66,16.12,30.66,39.48
		c0,13.55-5.07,23.83-12.57,31.54c-10.37,10.05-27.13,14.72-51.39,14.72c-13.23,0-23.38-0.93-29.77-1.87V132.15z M32.36,196.63
		h17.42c20.29,0,32.2-11.21,32.2-26.4c0-18.46-13.23-25.7-32.64-25.7c-8.82,0-13.89,0.7-16.98,1.4V196.63z M32.36,272.1
		c3.75,0.7,9.26,0.93,16.1,0.93c19.85,0,38.16-7.71,38.16-30.61c0-21.49-17.42-30.37-38.38-30.37H32.36V272.1z"/>
	<linearGradient id="SVGID_17_" gradientUnits="userSpaceOnUse" x1="111.6956" y1="230.8609" x2="206.8714" y2="230.8609">
		<stop  offset="0" style="stop-color:#84CB59"/>
		<stop  offset="0.4162" style="stop-color:#B9EBB3"/>
		<stop  offset="0.7095" style="stop-color:#1E4D2B"/>
		<stop  offset="1" style="stop-color:#8ABB8A"/>
	</linearGradient>
	<path class="st33" d="M130.72,234.72c0.44,27.8,17.2,39.25,36.61,39.25c13.89,0,22.28-2.57,29.55-5.84l3.31,14.72
		c-6.84,3.27-18.53,7.01-35.51,7.01c-32.86,0-52.49-22.9-52.49-57.01c0-34.11,18.97-60.98,50.07-60.98
		c34.85,0,44.11,32.47,44.11,53.27c0,4.21-0.44,7.48-0.66,9.58H130.72z M187.62,220c0.22-13.08-5.07-33.41-26.91-33.41
		c-19.63,0-28.23,19.16-29.77,33.41H187.62z"/>
</g>
<g>
	<path class="st34" d="M399.67,286.39h-20.01L331.59,58.15l-50.25,228.24h-20.01l-60.9-271.84h21.31l49.8,238.85l53.43-238.85h15.12
		l49.51,238.66l48.67-238.66h20.88L399.67,286.39z"/>
	<path class="st34" d="M452.92,209.07c0.09,9.45,1.3,17.94,3.6,25.47c2.3,7.54,5.61,13.92,9.93,19.14
		c4.32,5.23,9.57,9.22,15.76,11.98c6.19,2.76,13.17,4.14,20.95,4.14c16.6,0,32.3-6.08,47.08-18.24v18.99
		c-14.11,10.55-31.19,15.83-51.25,15.83c-9.89,0-18.86-1.81-26.92-5.43c-8.06-3.62-14.93-8.87-20.59-15.75
		c-5.66-6.88-10.03-15.35-13.1-25.4c-3.07-10.05-4.61-21.5-4.61-34.36c0-11.55,1.68-22.26,5.04-32.1
		c3.36-9.85,8.01-18.36,13.97-25.55c5.95-7.18,13-12.81,21.16-16.88c8.16-4.07,17.08-6.1,26.78-6.1c9.5,0,17.9,1.73,25.19,5.2
		c7.29,3.47,13.41,8.42,18.36,14.85c4.94,6.43,8.71,14.27,11.3,23.51c2.59,9.25,3.89,19.59,3.89,31.05v9.65H452.92z M540.45,192.19
		c-0.29-16.07-3.94-28.54-10.94-37.38c-7.01-8.84-16.75-13.26-29.23-13.26c-6.24,0-12.02,1.16-17.35,3.47
		c-5.33,2.31-10.01,5.65-14.04,10.02c-4.03,4.37-7.37,9.7-10.01,15.98c-2.64,6.28-4.49,13.34-5.54,21.18H540.45z"/>
	<path class="st34" d="M568.18,286.39V14.55h18.43v271.84H568.18z"/>
	<path class="st34" d="M594.61,286.39V14.55h18.43v271.84H594.61z"/>
</g>
<g class="st35">
	<path class="st34" d="M403.33,286.39h-20.01L335.24,58.15l-50.25,228.24h-20.01l-60.9-271.84h21.31l49.8,238.85l53.43-238.85h15.12
		l49.51,238.66l48.67-238.66h20.88L403.33,286.39z"/>
	<path class="st34" d="M456.57,209.07c0.09,9.45,1.3,17.94,3.6,25.47c2.3,7.54,5.61,13.92,9.93,19.14
		c4.32,5.23,9.57,9.22,15.76,11.98c6.19,2.76,13.17,4.14,20.95,4.14c11.98,0,23.49-3.16,34.52-9.49c1.87-1.07,8.91-8.74,8.91-8.74
		h3.65v18.99c-14.11,10.55-31.19,15.83-51.25,15.83c-9.89,0-18.86-1.81-26.92-5.43c-8.06-3.62-14.93-8.87-20.59-15.75
		c-5.66-6.88-10.03-15.35-13.1-25.4c-3.07-10.05-4.61-21.5-4.61-34.36c0-11.55,1.68-22.26,5.04-32.1
		c3.36-9.85,8.01-18.36,13.97-25.55c5.95-7.18,13-12.81,21.16-16.88c8.16-4.07,17.08-6.1,26.78-6.1c9.5,0,17.9,1.73,25.19,5.2
		c7.29,3.47,13.41,8.42,18.36,14.85c4.94,6.43,8.71,14.27,11.3,23.51c2.59,9.25,3.89,19.59,3.89,31.05v9.65H456.57z M544.1,192.19
		c-0.29-16.07-3.94-28.54-10.94-37.38c-7.01-8.84-16.75-13.26-29.23-13.26c-6.24,0-12.02,1.16-17.35,3.47
		c-5.33,2.31-10.01,5.65-14.04,10.02c-4.03,4.37-7.37,9.7-10.01,15.98c-2.64,6.28-4.49,13.34-5.54,21.18H544.1z"/>
	<path class="st34" d="M571.84,286.39V14.55h18.43v271.84H571.84z"/>
	<path class="st34" d="M598.27,286.39V14.55h18.43v271.84H598.27z"/>
</g>
</svg>
